G04 Layer: DrillDrawingLayer*
G04 EasyEDA Pro v2.1.49.1, 2024-02-28 13:49:17*
G04 Gerber Generator version 0.3*
G04 Scale: 100 percent, Rotated: No, Reflected: No*
G04 Dimensions in millimeters*
G04 Leading zeros omitted, absolute positions, 3 integers and 5 decimals*
%FSLAX35Y35*%
%MOMM*%
%ADD10C,0.254*%
G75*


G04 Image Start*
G36*
G01X8946286Y4604664D02*
G01X8946286Y4601007D01*
G01X8949893D01*
G01X8982507D01*
G01Y4568393D01*
G01X8949893D01*
G01Y4601007D01*
G01X8946286D01*
G01Y4564786D01*
G01X8986164D01*
G01Y4604664D01*
G37*
G36*
G01X3911600Y4617364D02*
G01X3909568Y4617212D01*
G01X3907587Y4616958D01*
G01X3905656Y4616450D01*
G01X3903828Y4615790D01*
G01X3902100Y4614926D01*
G01X3900475Y4613910D01*
G01X3898900Y4612792D01*
G01X3897478Y4611522D01*
G01X3896208Y4610100D01*
G01X3895090Y4608525D01*
G01X3894074Y4606900D01*
G01X3893210Y4605172D01*
G01X3892550Y4603344D01*
G01X3892042Y4601413D01*
G01X3891788Y4599432D01*
G01X3891686Y4597400D01*
G01X3894988D01*
G01X3895090Y4599076D01*
G01X3895344Y4600753D01*
G01X3895750Y4602328D01*
G01X3896309Y4603852D01*
G01X3896970Y4605325D01*
G01X3897833Y4606696D01*
G01X3898798Y4607966D01*
G01X3899865Y4609135D01*
G01X3901034Y4610202D01*
G01X3902304Y4611167D01*
G01X3903675Y4612030D01*
G01X3905148Y4612691D01*
G01X3906672Y4613250D01*
G01X3908247Y4613656D01*
G01X3909924Y4613910D01*
G01X3911600Y4614012D01*
G01X3913276Y4613910D01*
G01X3914953Y4613656D01*
G01X3916528Y4613250D01*
G01X3918052Y4612691D01*
G01X3919525Y4612030D01*
G01X3920896Y4611167D01*
G01X3922166Y4610202D01*
G01X3923335Y4609135D01*
G01X3924402Y4607966D01*
G01X3925367Y4606696D01*
G01X3926230Y4605325D01*
G01X3926891Y4603852D01*
G01X3927450Y4602328D01*
G01X3927856Y4600753D01*
G01X3928110Y4599076D01*
G01X3928212Y4597400D01*
G01X3928110Y4595724D01*
G01X3927856Y4594047D01*
G01X3927450Y4592472D01*
G01X3926891Y4590948D01*
G01X3926230Y4589475D01*
G01X3925367Y4588104D01*
G01X3924402Y4586834D01*
G01X3923335Y4585665D01*
G01X3922166Y4584598D01*
G01X3920896Y4583633D01*
G01X3919525Y4582770D01*
G01X3918052Y4582109D01*
G01X3916528Y4581550D01*
G01X3914953Y4581144D01*
G01X3913276Y4580890D01*
G01X3911600Y4580788D01*
G01X3909924Y4580890D01*
G01X3908247Y4581144D01*
G01X3906672Y4581550D01*
G01X3905148Y4582109D01*
G01X3903675Y4582770D01*
G01X3902304Y4583633D01*
G01X3901034Y4584598D01*
G01X3899865Y4585665D01*
G01X3898798Y4586834D01*
G01X3897833Y4588104D01*
G01X3896970Y4589475D01*
G01X3896309Y4590948D01*
G01X3895750Y4592472D01*
G01X3895344Y4594047D01*
G01X3895090Y4595724D01*
G01X3894988Y4597400D01*
G01X3891686D01*
G01X3891788Y4595368D01*
G01X3892042Y4593387D01*
G01X3892550Y4591456D01*
G01X3893210Y4589628D01*
G01X3894074Y4587900D01*
G01X3895090Y4586275D01*
G01X3896208Y4584700D01*
G01X3897478Y4583278D01*
G01X3898900Y4582008D01*
G01X3900475Y4580890D01*
G01X3902100Y4579874D01*
G01X3903828Y4579010D01*
G01X3905656Y4578350D01*
G01X3907587Y4577842D01*
G01X3909568Y4577588D01*
G01X3911600Y4577436D01*
G01X3913632Y4577588D01*
G01X3915613Y4577842D01*
G01X3917544Y4578350D01*
G01X3919372Y4579010D01*
G01X3921100Y4579874D01*
G01X3922725Y4580890D01*
G01X3924300Y4582008D01*
G01X3925722Y4583278D01*
G01X3926992Y4584700D01*
G01X3928110Y4586275D01*
G01X3929126Y4587900D01*
G01X3929990Y4589628D01*
G01X3930650Y4591456D01*
G01X3931158Y4593387D01*
G01X3931412Y4595368D01*
G01X3931564Y4597400D01*
G01X3931412Y4599432D01*
G01X3931158Y4601413D01*
G01X3930650Y4603344D01*
G01X3929990Y4605172D01*
G01X3929126Y4606900D01*
G01X3928110Y4608525D01*
G01X3926992Y4610100D01*
G01X3925722Y4611522D01*
G01X3924300Y4612792D01*
G01X3922725Y4613910D01*
G01X3921100Y4614926D01*
G01X3919372Y4615790D01*
G01X3917544Y4616450D01*
G01X3915613Y4616958D01*
G01X3913632Y4617212D01*
G37*
G36*
G01X2819400Y4630064D02*
G01X2817368Y4629912D01*
G01X2815387Y4629658D01*
G01X2813456Y4629150D01*
G01X2811628Y4628490D01*
G01X2809900Y4627626D01*
G01X2808275Y4626610D01*
G01X2806700Y4625492D01*
G01X2805278Y4624222D01*
G01X2804008Y4622800D01*
G01X2802890Y4621225D01*
G01X2801874Y4619600D01*
G01X2801010Y4617872D01*
G01X2800350Y4616044D01*
G01X2799842Y4614113D01*
G01X2799588Y4612132D01*
G01X2799486Y4610100D01*
G01X2802788D01*
G01X2802890Y4611776D01*
G01X2803144Y4613453D01*
G01X2803550Y4615028D01*
G01X2804109Y4616552D01*
G01X2804770Y4618025D01*
G01X2805633Y4619396D01*
G01X2806598Y4620666D01*
G01X2807665Y4621835D01*
G01X2808834Y4622902D01*
G01X2810104Y4623867D01*
G01X2811475Y4624730D01*
G01X2812948Y4625391D01*
G01X2814472Y4625950D01*
G01X2816047Y4626356D01*
G01X2817724Y4626610D01*
G01X2819400Y4626712D01*
G01X2821076Y4626610D01*
G01X2822753Y4626356D01*
G01X2824328Y4625950D01*
G01X2825852Y4625391D01*
G01X2827325Y4624730D01*
G01X2828696Y4623867D01*
G01X2829966Y4622902D01*
G01X2831135Y4621835D01*
G01X2832202Y4620666D01*
G01X2833167Y4619396D01*
G01X2834030Y4618025D01*
G01X2834691Y4616552D01*
G01X2835250Y4615028D01*
G01X2835656Y4613453D01*
G01X2835910Y4611776D01*
G01X2836012Y4610100D01*
G01X2835910Y4608424D01*
G01X2835656Y4606747D01*
G01X2835250Y4605172D01*
G01X2834691Y4603648D01*
G01X2834030Y4602175D01*
G01X2833167Y4600804D01*
G01X2832202Y4599534D01*
G01X2831135Y4598365D01*
G01X2829966Y4597298D01*
G01X2828696Y4596333D01*
G01X2827325Y4595470D01*
G01X2825852Y4594809D01*
G01X2824328Y4594250D01*
G01X2822753Y4593844D01*
G01X2821076Y4593590D01*
G01X2819400Y4593488D01*
G01X2817724Y4593590D01*
G01X2816047Y4593844D01*
G01X2814472Y4594250D01*
G01X2812948Y4594809D01*
G01X2811475Y4595470D01*
G01X2810104Y4596333D01*
G01X2808834Y4597298D01*
G01X2807665Y4598365D01*
G01X2806598Y4599534D01*
G01X2805633Y4600804D01*
G01X2804770Y4602175D01*
G01X2804109Y4603648D01*
G01X2803550Y4605172D01*
G01X2803144Y4606747D01*
G01X2802890Y4608424D01*
G01X2802788Y4610100D01*
G01X2799486D01*
G01X2799588Y4608068D01*
G01X2799842Y4606087D01*
G01X2800350Y4604156D01*
G01X2801010Y4602328D01*
G01X2801874Y4600600D01*
G01X2802890Y4598975D01*
G01X2804008Y4597400D01*
G01X2805278Y4595978D01*
G01X2806700Y4594708D01*
G01X2808275Y4593590D01*
G01X2809900Y4592574D01*
G01X2811628Y4591710D01*
G01X2813456Y4591050D01*
G01X2815387Y4590542D01*
G01X2817368Y4590288D01*
G01X2819400Y4590136D01*
G01X2821432Y4590288D01*
G01X2823413Y4590542D01*
G01X2825344Y4591050D01*
G01X2827172Y4591710D01*
G01X2828900Y4592574D01*
G01X2830525Y4593590D01*
G01X2832100Y4594708D01*
G01X2833522Y4595978D01*
G01X2834792Y4597400D01*
G01X2835910Y4598975D01*
G01X2836926Y4600600D01*
G01X2837790Y4602328D01*
G01X2838450Y4604156D01*
G01X2838958Y4606087D01*
G01X2839212Y4608068D01*
G01X2839364Y4610100D01*
G01X2839212Y4612132D01*
G01X2838958Y4614113D01*
G01X2838450Y4616044D01*
G01X2837790Y4617872D01*
G01X2836926Y4619600D01*
G01X2835910Y4621225D01*
G01X2834792Y4622800D01*
G01X2833522Y4624222D01*
G01X2832100Y4625492D01*
G01X2830525Y4626610D01*
G01X2828900Y4627626D01*
G01X2827172Y4628490D01*
G01X2825344Y4629150D01*
G01X2823413Y4629658D01*
G01X2821432Y4629912D01*
G37*
G36*
G01X2108200Y5582564D02*
G01X2106168Y5582412D01*
G01X2104187Y5582158D01*
G01X2102256Y5581650D01*
G01X2100428Y5580990D01*
G01X2098700Y5580126D01*
G01X2097075Y5579110D01*
G01X2095500Y5577992D01*
G01X2094078Y5576722D01*
G01X2092808Y5575300D01*
G01X2091690Y5573725D01*
G01X2090674Y5572100D01*
G01X2089810Y5570372D01*
G01X2089150Y5568544D01*
G01X2088642Y5566613D01*
G01X2088388Y5564632D01*
G01X2088286Y5562600D01*
G01X2091588D01*
G01X2091690Y5564276D01*
G01X2091944Y5565953D01*
G01X2092350Y5567528D01*
G01X2092909Y5569052D01*
G01X2093570Y5570525D01*
G01X2094433Y5571896D01*
G01X2095398Y5573166D01*
G01X2096465Y5574335D01*
G01X2097634Y5575402D01*
G01X2098904Y5576367D01*
G01X2100275Y5577230D01*
G01X2101748Y5577891D01*
G01X2103272Y5578450D01*
G01X2104847Y5578856D01*
G01X2106524Y5579110D01*
G01X2108200Y5579212D01*
G01X2109876Y5579110D01*
G01X2111553Y5578856D01*
G01X2113128Y5578450D01*
G01X2114652Y5577891D01*
G01X2116125Y5577230D01*
G01X2117496Y5576367D01*
G01X2118766Y5575402D01*
G01X2119935Y5574335D01*
G01X2121002Y5573166D01*
G01X2121967Y5571896D01*
G01X2122830Y5570525D01*
G01X2123491Y5569052D01*
G01X2124050Y5567528D01*
G01X2124456Y5565953D01*
G01X2124710Y5564276D01*
G01X2124812Y5562600D01*
G01X2124710Y5560924D01*
G01X2124456Y5559247D01*
G01X2124050Y5557672D01*
G01X2123491Y5556148D01*
G01X2122830Y5554675D01*
G01X2121967Y5553304D01*
G01X2121002Y5552034D01*
G01X2119935Y5550865D01*
G01X2118766Y5549798D01*
G01X2117496Y5548833D01*
G01X2116125Y5547970D01*
G01X2114652Y5547309D01*
G01X2113128Y5546750D01*
G01X2111553Y5546344D01*
G01X2109876Y5546090D01*
G01X2108200Y5545988D01*
G01X2106524Y5546090D01*
G01X2104847Y5546344D01*
G01X2103272Y5546750D01*
G01X2101748Y5547309D01*
G01X2100275Y5547970D01*
G01X2098904Y5548833D01*
G01X2097634Y5549798D01*
G01X2096465Y5550865D01*
G01X2095398Y5552034D01*
G01X2094433Y5553304D01*
G01X2093570Y5554675D01*
G01X2092909Y5556148D01*
G01X2092350Y5557672D01*
G01X2091944Y5559247D01*
G01X2091690Y5560924D01*
G01X2091588Y5562600D01*
G01X2088286D01*
G01X2088388Y5560568D01*
G01X2088642Y5558587D01*
G01X2089150Y5556656D01*
G01X2089810Y5554828D01*
G01X2090674Y5553100D01*
G01X2091690Y5551475D01*
G01X2092808Y5549900D01*
G01X2094078Y5548478D01*
G01X2095500Y5547208D01*
G01X2097075Y5546090D01*
G01X2098700Y5545074D01*
G01X2100428Y5544210D01*
G01X2102256Y5543550D01*
G01X2104187Y5543042D01*
G01X2106168Y5542788D01*
G01X2108200Y5542636D01*
G01X2110232Y5542788D01*
G01X2112213Y5543042D01*
G01X2114144Y5543550D01*
G01X2115972Y5544210D01*
G01X2117700Y5545074D01*
G01X2119325Y5546090D01*
G01X2120900Y5547208D01*
G01X2122322Y5548478D01*
G01X2123592Y5549900D01*
G01X2124710Y5551475D01*
G01X2125726Y5553100D01*
G01X2126590Y5554828D01*
G01X2127250Y5556656D01*
G01X2127758Y5558587D01*
G01X2128012Y5560568D01*
G01X2128164Y5562600D01*
G01X2128012Y5564632D01*
G01X2127758Y5566613D01*
G01X2127250Y5568544D01*
G01X2126590Y5570372D01*
G01X2125726Y5572100D01*
G01X2124710Y5573725D01*
G01X2123592Y5575300D01*
G01X2122322Y5576722D01*
G01X2120900Y5577992D01*
G01X2119325Y5579110D01*
G01X2117700Y5580126D01*
G01X2115972Y5580990D01*
G01X2114144Y5581650D01*
G01X2112213Y5582158D01*
G01X2110232Y5582412D01*
G37*
G36*
G01X2286000Y5582564D02*
G01X2283968Y5582412D01*
G01X2281987Y5582158D01*
G01X2280056Y5581650D01*
G01X2278228Y5580990D01*
G01X2276500Y5580126D01*
G01X2274875Y5579110D01*
G01X2273300Y5577992D01*
G01X2271878Y5576722D01*
G01X2270608Y5575300D01*
G01X2269490Y5573725D01*
G01X2268474Y5572100D01*
G01X2267610Y5570372D01*
G01X2266950Y5568544D01*
G01X2266442Y5566613D01*
G01X2266188Y5564632D01*
G01X2266086Y5562600D01*
G01X2269388D01*
G01X2269490Y5564276D01*
G01X2269744Y5565953D01*
G01X2270150Y5567528D01*
G01X2270709Y5569052D01*
G01X2271370Y5570525D01*
G01X2272233Y5571896D01*
G01X2273198Y5573166D01*
G01X2274265Y5574335D01*
G01X2275434Y5575402D01*
G01X2276704Y5576367D01*
G01X2278075Y5577230D01*
G01X2279548Y5577891D01*
G01X2281072Y5578450D01*
G01X2282647Y5578856D01*
G01X2284324Y5579110D01*
G01X2286000Y5579212D01*
G01X2287676Y5579110D01*
G01X2289353Y5578856D01*
G01X2290928Y5578450D01*
G01X2292452Y5577891D01*
G01X2293925Y5577230D01*
G01X2295296Y5576367D01*
G01X2296566Y5575402D01*
G01X2297735Y5574335D01*
G01X2298802Y5573166D01*
G01X2299767Y5571896D01*
G01X2300630Y5570525D01*
G01X2301291Y5569052D01*
G01X2301850Y5567528D01*
G01X2302256Y5565953D01*
G01X2302510Y5564276D01*
G01X2302612Y5562600D01*
G01X2302510Y5560924D01*
G01X2302256Y5559247D01*
G01X2301850Y5557672D01*
G01X2301291Y5556148D01*
G01X2300630Y5554675D01*
G01X2299767Y5553304D01*
G01X2298802Y5552034D01*
G01X2297735Y5550865D01*
G01X2296566Y5549798D01*
G01X2295296Y5548833D01*
G01X2293925Y5547970D01*
G01X2292452Y5547309D01*
G01X2290928Y5546750D01*
G01X2289353Y5546344D01*
G01X2287676Y5546090D01*
G01X2286000Y5545988D01*
G01X2284324Y5546090D01*
G01X2282647Y5546344D01*
G01X2281072Y5546750D01*
G01X2279548Y5547309D01*
G01X2278075Y5547970D01*
G01X2276704Y5548833D01*
G01X2275434Y5549798D01*
G01X2274265Y5550865D01*
G01X2273198Y5552034D01*
G01X2272233Y5553304D01*
G01X2271370Y5554675D01*
G01X2270709Y5556148D01*
G01X2270150Y5557672D01*
G01X2269744Y5559247D01*
G01X2269490Y5560924D01*
G01X2269388Y5562600D01*
G01X2266086D01*
G01X2266188Y5560568D01*
G01X2266442Y5558587D01*
G01X2266950Y5556656D01*
G01X2267610Y5554828D01*
G01X2268474Y5553100D01*
G01X2269490Y5551475D01*
G01X2270608Y5549900D01*
G01X2271878Y5548478D01*
G01X2273300Y5547208D01*
G01X2274875Y5546090D01*
G01X2276500Y5545074D01*
G01X2278228Y5544210D01*
G01X2280056Y5543550D01*
G01X2281987Y5543042D01*
G01X2283968Y5542788D01*
G01X2286000Y5542636D01*
G01X2288032Y5542788D01*
G01X2290013Y5543042D01*
G01X2291944Y5543550D01*
G01X2293772Y5544210D01*
G01X2295500Y5545074D01*
G01X2297125Y5546090D01*
G01X2298700Y5547208D01*
G01X2300122Y5548478D01*
G01X2301392Y5549900D01*
G01X2302510Y5551475D01*
G01X2303526Y5553100D01*
G01X2304390Y5554828D01*
G01X2305050Y5556656D01*
G01X2305558Y5558587D01*
G01X2305812Y5560568D01*
G01X2305964Y5562600D01*
G01X2305812Y5564632D01*
G01X2305558Y5566613D01*
G01X2305050Y5568544D01*
G01X2304390Y5570372D01*
G01X2303526Y5572100D01*
G01X2302510Y5573725D01*
G01X2301392Y5575300D01*
G01X2300122Y5576722D01*
G01X2298700Y5577992D01*
G01X2297125Y5579110D01*
G01X2295500Y5580126D01*
G01X2293772Y5580990D01*
G01X2291944Y5581650D01*
G01X2290013Y5582158D01*
G01X2288032Y5582412D01*
G37*
G04 Image End*
G54D10*

M02*
