G04 Layer: BottomLayer*
G04 EasyEDA Pro v2.1.49.1, 2024-02-28 13:49:17*
G04 Gerber Generator version 0.3*
G04 Scale: 100 percent, Rotated: No, Reflected: No*
G04 Dimensions in millimeters*
G04 Leading zeros omitted, absolute positions, 3 integers and 5 decimals*
%FSLAX35Y35*%
%MOMM*%
%ADD10C,0.3048*%
%ADD11R,4.99999X1.4*%
%ADD12C,4.99999*%
%ADD13C,0.6096*%
%ADD14C,0.305*%
G75*


G04 PolygonModel Start*
G54D10*
G01X1346200Y2175299D02*
G02X1076201Y2444539I-379J269620D01*
G01X1346200Y2233719D02*
G02X1136200Y2444539I410J210410D01*
G01X1346200Y2294679D02*
G02X1196200Y2444539I-70J149930D01*
G01X1346200Y2353099D02*
G02X1256200Y2444539I721J90721D01*
G01X1346200Y2414059D02*
G02X1316200Y2444539I240J30240D01*
G01X1076201Y6705600D02*
G02X1346200Y6975599I270000J-0D01*
G01X1136200Y6705600D02*
G02X1346200Y6915600I210000J-0D01*
G01X1196200Y6705600D02*
G02X1346200Y6855600I150000J-0D01*
G01X1256200Y6705600D02*
G02X1346200Y6795600I90000J0D01*
G01X1316200Y6705600D02*
G02X1346200Y6735600I30000J0D01*
G01X3306641Y6975599D02*
G02X3578421Y6705600I890J-270890D01*
G01X3306641Y6915600D02*
G02X3517461Y6705600I410J-210410D01*
G01X3306641Y6855600D02*
G02X3456501Y6705600I-70J-149930D01*
G01X3306641Y6795600D02*
G02X3398081Y6705600I719J-90721D01*
G01X3306641Y6735600D02*
G02X3337121Y6705600I240J-30240D01*
G01X3578421Y2444539D02*
G02X3306641Y2175299I-270510J1270D01*
G01X3517461Y2444539D02*
G02X3306641Y2233719I-210820J0D01*
G01X3456501Y2444539D02*
G02X3306641Y2294679I-149860J0D01*
G01X3398081Y2444539D02*
G02X3306641Y2353099I-91440J0D01*
G01X3337121Y2444539D02*
G02X3306641Y2414059I-30480J0D01*
G04 PolygonModel End*

G04 Pad Start*
G54D11*
G01X2209800Y4267200D03*
G01X2209800Y4965700D03*
G54D12*
G01X8966200Y4584700D03*
G04 Pad End*

G04 Via Start*
G54D13*
G01X3911600Y4597400D03*
G01X2819400Y4610100D03*
G01X2108200Y5562600D03*
G01X2286000Y5562600D03*
G04 Via End*

G04 Track Start*
G54D10*
G01X3337052Y2444750D02*
G01X3337052Y4498848D01*
G01X3276600Y4559300D01*
G01Y4864100D01*
G01X3175000Y4965700D02*
G01X2209800Y4965700D01*
G01X3578418Y6705148D02*
G01X3574895Y4692805D01*
G01X1346208Y2175299D02*
G01X3306633Y2175299D01*
G01X1346208Y2353099D02*
G01X3306633Y2353099D01*
G01X3578418Y4575599D02*
G01X3517461Y4635602D01*
G01Y6705603D01*
G01X3456503Y4534957D02*
G01X3398076Y4595597D01*
G01Y6705603D01*
G01X3517461Y4555277D02*
G01X3456503Y4615597D01*
G01Y6705603D01*
G01X3398076Y4514642D02*
G01X3337118Y4575599D01*
G01Y6705603D01*
G01X1346208Y2233719D02*
G01X3306633Y2233719D01*
G01X1346208Y2294677D02*
G01X3306633Y2294677D01*
G01X1346208Y2414057D02*
G01X3306633Y2414057D01*
G01X1346208Y6975599D02*
G01X3306633Y6975599D01*
G01X1346208Y6915597D02*
G01X3306633Y6915597D01*
G01X1346208Y6855595D02*
G01X3306633Y6855595D01*
G01X1346208Y6795600D02*
G01X3306633Y6795600D01*
G01X1346208Y6735597D02*
G01X3306633Y6735597D01*
G01X1076195Y2444542D02*
G01X1076195Y6705603D01*
G01X1136198Y2444542D02*
G01X1136198Y6705603D01*
G01X1196200Y2444542D02*
G01X1196200Y6705603D01*
G01X1256203Y2444542D02*
G01X1256203Y6705603D01*
G01X1316205Y2444542D02*
G01X1316205Y6705603D01*
G54D14*
G01X2108200Y5562600D02*
G01X1676400Y5130800D01*
G01X2209800Y4267200D02*
G01X2209800Y3797300D01*
G01X1943100D01*
G01X1676400Y4064000D01*
G01Y5130800D01*
G01X2209800Y3797300D02*
G01X2476500Y3797300D01*
G01X2819400Y4140200D01*
G01Y4610100D01*
G54D10*
G01X3276600Y4864100D02*
G01X3175000Y4965700D01*
G01X3517461Y2444542D02*
G01X3517461Y4555277D01*
G01X3456503Y2444542D02*
G01X3456503Y4534957D01*
G01X3398076Y2444542D02*
G01X3398076Y4514642D01*
G01X3578418Y2444542D02*
G01X3578418Y4575599D01*
G54D14*
G01X3574895Y4692805D02*
G01X3619330Y4648370D01*
G01X3860800Y4546600D02*
G01X3721100Y4546600D01*
G01X3620091Y4648370D01*
G01X3911600Y4597400D02*
G01X3860800Y4546600D01*
G54D10*
G01X2286000Y5562600D02*
G01X2209800Y5486400D01*
G01Y4965700D01*
G54D14*
G01X3620091Y4648370D02*
G01X3619330Y4648370D01*
G01X8610600Y5032051D02*
G01X8890000Y5311451D01*
G01Y7226300D01*
G01X8902700Y1905000D02*
G01X8902700Y3853372D01*
G01X8610600Y4145472D01*
G01Y5032051D01*
G04 Track End*

M02*
