G04 Layer: TopPasteMaskLayer*
G04 EasyEDA Pro v2.1.49.1, 2024-02-28 13:49:17*
G04 Gerber Generator version 0.3*
G04 Scale: 100 percent, Rotated: No, Reflected: No*
G04 Dimensions in millimeters*
G04 Leading zeros omitted, absolute positions, 3 integers and 5 decimals*
%FSLAX35Y35*%
%MOMM*%
%ADD10R,1.4X1.4*%
%ADD11R,0.8X0.8*%
%ADD12R,0.4X1.7*%
%ADD13R,1.1X1.0*%
%ADD14R,0.62499X0.28001*%
%ADD15R,1.65001X1.95001*%
%ADD16R,1.9X1.7*%
%ADD17O,0.28001X1.48549*%
%ADD18R,0.25001X0.55001*%
%ADD19R,0.2545X0.55001*%
%ADD20R,0.25001X0.55001*%
%ADD21R,1.55001X0.95001*%
%ADD22R,3.69999X5.41*%
%ADD23R,1.85001X0.4*%
%ADD24R,0.9X1.62499*%
%ADD25R,1.3X1.71501*%
%ADD26R,2.04638X1.62001*%
%ADD27R,1.2X0.95001*%
%ADD28R,0.5X0.6*%
%ADD29R,1.04999X1.5*%
%ADD30R,2.4X1.5*%
%ADD31R,0.7X1.25001*%
%ADD32R,0.93X0.35999*%
%ADD33R,0.9X1.3*%
%ADD34R,0.6X0.75001*%
%ADD35R,0.9X3.45001*%
%ADD36R,1.35001X3.45001*%
%ADD37R,1.75001X1.55001*%
%ADD38R,0.65001X1.55001*%
%ADD39R,1.2X0.5*%
%ADD40R,1.2X0.5*%
G75*


G04 PolygonModel Start*
G36*
G01X2680500Y5374776D02*
G01X2680500Y5420775D01*
G01X2684501Y5424776D01*
G01X2734564D01*
G01X2738565Y5420775D01*
G01Y5374776D01*
G01X2734564Y5370775D01*
G01X2684501D01*
G01X2680500Y5374776D01*
G37*
G36*
G01X2653500Y5374776D02*
G01X2653500Y5420775D01*
G01X2649499Y5424776D01*
G01X2599436D01*
G01X2595436Y5420775D01*
G01Y5374776D01*
G01X2599436Y5370775D01*
G01X2649499D01*
G01X2653500Y5374776D01*
G37*
G36*
G01X2609639Y6338100D02*
G01X2563640Y6338100D01*
G01X2559639Y6342101D01*
G01Y6392164D01*
G01X2563640Y6396165D01*
G01X2609639D01*
G01X2613640Y6392164D01*
G01Y6342101D01*
G01X2609639Y6338100D01*
G37*
G36*
G01X2609639Y6311100D02*
G01X2563640Y6311100D01*
G01X2559639Y6307099D01*
G01Y6257036D01*
G01X2563640Y6253036D01*
G01X2609639D01*
G01X2613640Y6257036D01*
G01Y6307099D01*
G01X2609639Y6311100D01*
G37*
G36*
G01X4911507Y5713900D02*
G01X4911507Y5741500D01*
G01X4913907Y5743900D01*
G01X4940320D01*
G01X4942718Y5741500D01*
G01Y5713900D01*
G01X4940320Y5711500D01*
G01X4913907D01*
G01X4911507Y5713900D01*
G37*
G36*
G01X4895306Y5713900D02*
G01X4895306Y5741500D01*
G01X4892906Y5743900D01*
G01X4866493D01*
G01X4864095Y5741500D01*
G01Y5713900D01*
G01X4866493Y5711500D01*
G01X4892906D01*
G01X4895306Y5713900D01*
G37*
G36*
G01X4911507Y5828200D02*
G01X4911507Y5855800D01*
G01X4913907Y5858200D01*
G01X4940320D01*
G01X4942718Y5855800D01*
G01Y5828200D01*
G01X4940320Y5825800D01*
G01X4913907D01*
G01X4911507Y5828200D01*
G37*
G36*
G01X4895306Y5828200D02*
G01X4895306Y5855800D01*
G01X4892906Y5858200D01*
G01X4866493D01*
G01X4864095Y5855800D01*
G01Y5828200D01*
G01X4866493Y5825800D01*
G01X4892906D01*
G01X4895306Y5828200D01*
G37*
G36*
G01X2875746Y5418300D02*
G01X2848146Y5418300D01*
G01X2845746Y5420700D01*
G01Y5447114D01*
G01X2848146Y5449512D01*
G01X2875746D01*
G01X2878146Y5447114D01*
G01Y5420700D01*
G01X2875746Y5418300D01*
G37*
G36*
G01X2875746Y5402100D02*
G01X2848146Y5402100D01*
G01X2845746Y5399700D01*
G01Y5373286D01*
G01X2848146Y5370888D01*
G01X2875746D01*
G01X2878146Y5373286D01*
G01Y5399700D01*
G01X2875746Y5402100D01*
G37*
G36*
G01X2652747Y5548800D02*
G01X2652747Y5576400D01*
G01X2655147Y5578800D01*
G01X2681561D01*
G01X2683958Y5576400D01*
G01Y5548800D01*
G01X2681561Y5546400D01*
G01X2655147D01*
G01X2652747Y5548800D01*
G37*
G36*
G01X2636547Y5548800D02*
G01X2636547Y5576400D01*
G01X2634146Y5578800D01*
G01X2607733D01*
G01X2605335Y5576400D01*
G01Y5548800D01*
G01X2607733Y5546400D01*
G01X2634146D01*
G01X2636547Y5548800D01*
G37*
G36*
G01X2852628Y5548800D02*
G01X2852628Y5576400D01*
G01X2855029Y5578800D01*
G01X2881442D01*
G01X2883840Y5576400D01*
G01Y5548800D01*
G01X2881442Y5546400D01*
G01X2855029D01*
G01X2852628Y5548800D01*
G37*
G36*
G01X2836428Y5548800D02*
G01X2836428Y5576400D01*
G01X2834028Y5578800D01*
G01X2807614D01*
G01X2805217Y5576400D01*
G01Y5548800D01*
G01X2807614Y5546400D01*
G01X2834028D01*
G01X2836428Y5548800D01*
G37*
G36*
G01X3317301Y6129109D02*
G02X3317301Y6157110I0J14000D01*
G01X3369300D01*
G02Y6129109I0J-14000D01*
G01X3317301D01*
G37*
G36*
G01X3317301Y6179096D02*
G02X3317301Y6207097I0J14000D01*
G01X3369300D01*
G02Y6179096I-0J-14000D01*
G01X3317301D01*
G37*
G36*
G01X3317301Y6229109D02*
G02X3317301Y6257110I0J14000D01*
G01X3369300D01*
G02Y6229109I-0J-14000D01*
G01X3317301D01*
G37*
G36*
G01X3317301Y6279096D02*
G02X3317301Y6307097I0J14000D01*
G01X3369300D01*
G02Y6279096I-0J-14000D01*
G01X3317301D01*
G37*
G36*
G01X3317301Y6329109D02*
G02X3317301Y6357109I0J14000D01*
G01X3369300D01*
G02Y6329109I-0J-14000D01*
G01X3317301D01*
G37*
G36*
G01X3317301Y6379096D02*
G02X3317301Y6407097I0J14000D01*
G01X3369300D01*
G02Y6379096I0J-14000D01*
G01X3317301D01*
G37*
G36*
G01X3405094Y6494102D02*
G02X3433094Y6494102I14000J-0D01*
G01Y6442103D01*
G02X3405094I-14000J0D01*
G01Y6494102D01*
G37*
G36*
G01X3454293Y6494102D02*
G02X3482294Y6494102I14000J0D01*
G01Y6442103D01*
G02X3454293I-14000J0D01*
G01Y6494102D01*
G37*
G36*
G01X3504306Y6494102D02*
G02X3532307Y6494102I14000J0D01*
G01Y6442103D01*
G02X3504306I-14000J0D01*
G01Y6494102D01*
G37*
G36*
G01X3554293Y6494102D02*
G02X3582294Y6494102I14000J0D01*
G01Y6442103D01*
G02X3554293I-14000J0D01*
G01Y6494102D01*
G37*
G36*
G01X3604306Y6494102D02*
G02X3632307Y6494102I14000J0D01*
G01Y6442103D01*
G02X3604306I-14000J0D01*
G01Y6494102D01*
G37*
G36*
G01X3654293Y6494102D02*
G02X3682294Y6494102I14000J-0D01*
G01Y6442103D01*
G02X3654293I-14000J0D01*
G01Y6494102D01*
G37*
G36*
G01X3717300Y6379096D02*
G02X3717300Y6407097I0J14000D01*
G01X3769299D01*
G02Y6379096I0J-14000D01*
G01X3717300D01*
G37*
G36*
G01X3717300Y6329109D02*
G02X3717300Y6357109I0J14000D01*
G01X3769299D01*
G02Y6329109I-0J-14000D01*
G01X3717300D01*
G37*
G36*
G01X3717300Y6279096D02*
G02X3717300Y6307097I0J14000D01*
G01X3769299D01*
G02Y6279096I-0J-14000D01*
G01X3717300D01*
G37*
G36*
G01X3717300Y6229109D02*
G02X3717300Y6257110I0J14000D01*
G01X3769299D01*
G02Y6229109I-0J-14000D01*
G01X3717300D01*
G37*
G36*
G01X3717300Y6179096D02*
G02X3717300Y6207097I0J14000D01*
G01X3769299D01*
G02Y6179096I-0J-14000D01*
G01X3717300D01*
G37*
G36*
G01X3717300Y6129109D02*
G02X3717300Y6157110I0J14000D01*
G01X3769299D01*
G02Y6129109I0J-14000D01*
G01X3717300D01*
G37*
G36*
G01X3654293Y6094103D02*
G02X3682294Y6094103I14000J-0D01*
G01Y6042104D01*
G02X3654293I-14000J0D01*
G01Y6094103D01*
G37*
G36*
G01X3604306Y6094103D02*
G02X3632307Y6094103I14000J0D01*
G01Y6042104D01*
G02X3604306I-14000J0D01*
G01Y6094103D01*
G37*
G36*
G01X3554293Y6094103D02*
G02X3582294Y6094103I14000J0D01*
G01Y6042104D01*
G02X3554293I-14000J0D01*
G01Y6094103D01*
G37*
G36*
G01X3504306Y6094103D02*
G02X3532307Y6094103I14000J0D01*
G01Y6042104D01*
G02X3504306I-14000J0D01*
G01Y6094103D01*
G37*
G36*
G01X3454293Y6094103D02*
G02X3482294Y6094103I14000J0D01*
G01Y6042104D01*
G02X3454293I-14000J0D01*
G01Y6094103D01*
G37*
G36*
G01X3404306Y6094103D02*
G02X3432307Y6094103I14000J-0D01*
G01Y6042104D01*
G02X3404306I-14000J0D01*
G01Y6094103D01*
G37*
G36*
G01X3436544Y6376104D02*
G01X3652545Y6376104D01*
G01Y6160102D01*
G01X3436544D01*
G01Y6376104D01*
G37*
G36*
G01X4173583Y6412400D02*
G01X4173583Y6440000D01*
G01X4175984Y6442400D01*
G01X4202397D01*
G01X4204795Y6440000D01*
G01Y6412400D01*
G01X4202397Y6410000D01*
G01X4175984D01*
G01X4173583Y6412400D01*
G37*
G36*
G01X4157383Y6412400D02*
G01X4157383Y6440000D01*
G01X4154983Y6442400D01*
G01X4128569D01*
G01X4126172Y6440000D01*
G01Y6412400D01*
G01X4128569Y6410000D01*
G01X4154983D01*
G01X4157383Y6412400D01*
G37*
G36*
G01X3883800Y6134804D02*
G01X3837800Y6134804D01*
G01X3833800Y6138804D01*
G01Y6188867D01*
G01X3837800Y6192868D01*
G01X3883800D01*
G01X3887800Y6188867D01*
G01Y6138804D01*
G01X3883800Y6134804D01*
G37*
G36*
G01X3883800Y6107803D02*
G01X3837800Y6107803D01*
G01X3833800Y6103803D01*
G01Y6053739D01*
G01X3837800Y6049739D01*
G01X3883800D01*
G01X3887800Y6053739D01*
G01Y6103803D01*
G01X3883800Y6107803D01*
G37*
G36*
G01X1512456Y3481600D02*
G01X1512456Y3518625D01*
G01X1522456Y3528625D01*
G01X1552946D01*
G01X1562946Y3538625D01*
G01Y3577375D01*
G01X1552946Y3587375D01*
G01X1522456D01*
G01X1512456Y3597375D01*
G01Y3634401D01*
G01X1522456Y3644401D01*
G01X1650954D01*
G01X1660954Y3634401D01*
G01Y3481600D01*
G01X1650954Y3471600D01*
G01X1522456D01*
G01X1512456Y3481600D01*
G37*
G36*
G01X1342454Y3481600D02*
G01X1342454Y3518625D01*
G01X1332454Y3528625D01*
G01X1301963D01*
G01X1291963Y3538625D01*
G01Y3577375D01*
G01X1301963Y3587375D01*
G01X1332454D01*
G01X1342454Y3597375D01*
G01Y3634401D01*
G01X1332454Y3644401D01*
G01X1203955D01*
G01X1193955Y3634401D01*
G01Y3481600D01*
G01X1203955Y3471600D01*
G01X1332454D01*
G01X1342454Y3481600D01*
G37*
G36*
G01X3776172Y3605700D02*
G01X3776172Y3633300D01*
G01X3778573Y3635700D01*
G01X3804986D01*
G01X3807384Y3633300D01*
G01Y3605700D01*
G01X3804986Y3603300D01*
G01X3778573D01*
G01X3776172Y3605700D01*
G37*
G36*
G01X3759972Y3605700D02*
G01X3759972Y3633300D01*
G01X3757572Y3635700D01*
G01X3731158D01*
G01X3728761Y3633300D01*
G01Y3605700D01*
G01X3731158Y3603300D01*
G01X3757572D01*
G01X3759972Y3605700D01*
G37*
G36*
G01X4213407Y4161000D02*
G01X4185807Y4161000D01*
G01X4183407Y4163400D01*
G01Y4189814D01*
G01X4185807Y4192212D01*
G01X4213407D01*
G01X4215807Y4189814D01*
G01Y4163400D01*
G01X4213407Y4161000D01*
G37*
G36*
G01X4213407Y4144800D02*
G01X4185807Y4144800D01*
G01X4183407Y4142400D01*
G01Y4115986D01*
G01X4185807Y4113588D01*
G01X4213407D01*
G01X4215807Y4115986D01*
G01Y4142400D01*
G01X4213407Y4144800D01*
G37*
G36*
G01X5739600Y5490020D02*
G01X5739600Y5444020D01*
G01X5735599Y5440020D01*
G01X5685536D01*
G01X5681536Y5444020D01*
G01Y5490020D01*
G01X5685536Y5494020D01*
G01X5735599D01*
G01X5739600Y5490020D01*
G37*
G36*
G01X5766600Y5490020D02*
G01X5766600Y5444020D01*
G01X5770601Y5440020D01*
G01X5820664D01*
G01X5824665Y5444020D01*
G01Y5490020D01*
G01X5820664Y5494020D01*
G01X5770601D01*
G01X5766600Y5490020D01*
G37*
G36*
G01X4213407Y3957800D02*
G01X4185807Y3957800D01*
G01X4183407Y3960200D01*
G01Y3986614D01*
G01X4185807Y3989012D01*
G01X4213407D01*
G01X4215807Y3986614D01*
G01Y3960200D01*
G01X4213407Y3957800D01*
G37*
G36*
G01X4213407Y3941600D02*
G01X4185807Y3941600D01*
G01X4183407Y3939200D01*
G01Y3912786D01*
G01X4185807Y3910388D01*
G01X4213407D01*
G01X4215807Y3912786D01*
G01Y3939200D01*
G01X4213407Y3941600D01*
G37*
G36*
G01X4202394Y4402300D02*
G01X4174795Y4402300D01*
G01X4172395Y4404700D01*
G01Y4431114D01*
G01X4174795Y4433512D01*
G01X4202394D01*
G01X4204795Y4431114D01*
G01Y4404700D01*
G01X4202394Y4402300D01*
G37*
G36*
G01X4202394Y4386100D02*
G01X4174795Y4386100D01*
G01X4172395Y4383700D01*
G01Y4357286D01*
G01X4174795Y4354888D01*
G01X4202394D01*
G01X4204795Y4357286D01*
G01Y4383700D01*
G01X4202394Y4386100D01*
G37*
G36*
G01X1452270Y3707201D02*
G01X1406270Y3707201D01*
G01X1402270Y3711202D01*
G01Y3761265D01*
G01X1406270Y3765266D01*
G01X1452270D01*
G01X1456270Y3761265D01*
G01Y3711202D01*
G01X1452270Y3707201D01*
G37*
G36*
G01X1452270Y3680201D02*
G01X1406270Y3680201D01*
G01X1402270Y3676200D01*
G01Y3626137D01*
G01X1406270Y3622137D01*
G01X1452270D01*
G01X1456270Y3626137D01*
G01Y3676200D01*
G01X1452270Y3680201D01*
G37*
G36*
G01X3961336Y3605700D02*
G01X3961336Y3633300D01*
G01X3963736Y3635700D01*
G01X3990150D01*
G01X3992547Y3633300D01*
G01Y3605700D01*
G01X3990150Y3603300D01*
G01X3963736D01*
G01X3961336Y3605700D01*
G37*
G36*
G01X3945136Y3605700D02*
G01X3945136Y3633300D01*
G01X3942735Y3635700D01*
G01X3916322D01*
G01X3913924Y3633300D01*
G01Y3605700D01*
G01X3916322Y3603300D01*
G01X3942735D01*
G01X3945136Y3605700D01*
G37*
G36*
G01X4151861Y3605700D02*
G01X4151861Y3633300D01*
G01X4154261Y3635700D01*
G01X4180675D01*
G01X4183072Y3633300D01*
G01Y3605700D01*
G01X4180675Y3603300D01*
G01X4154261D01*
G01X4151861Y3605700D01*
G37*
G36*
G01X4135661Y3605700D02*
G01X4135661Y3633300D01*
G01X4133260Y3635700D01*
G01X4106847D01*
G01X4104449Y3633300D01*
G01Y3605700D01*
G01X4106847Y3603300D01*
G01X4133260D01*
G01X4135661Y3605700D01*
G37*
G36*
G01X1621000Y3732700D02*
G01X1621000Y3760300D01*
G01X1623400Y3762700D01*
G01X1649814D01*
G01X1652212Y3760300D01*
G01Y3732700D01*
G01X1649814Y3730300D01*
G01X1623400D01*
G01X1621000Y3732700D01*
G37*
G36*
G01X1604800Y3732700D02*
G01X1604800Y3760300D01*
G01X1602400Y3762700D01*
G01X1575986D01*
G01X1573588Y3760300D01*
G01Y3732700D01*
G01X1575986Y3730300D01*
G01X1602400D01*
G01X1604800Y3732700D01*
G37*
G36*
G01X1264303Y3734720D02*
G01X1264303Y3762319D01*
G01X1266703Y3764720D01*
G01X1293117D01*
G01X1295514Y3762319D01*
G01Y3734720D01*
G01X1293117Y3732319D01*
G01X1266703D01*
G01X1264303Y3734720D01*
G37*
G36*
G01X1248103Y3734720D02*
G01X1248103Y3762319D01*
G01X1245702Y3764720D01*
G01X1219289D01*
G01X1216891Y3762319D01*
G01Y3734720D01*
G01X1219289Y3732319D01*
G01X1245702D01*
G01X1248103Y3734720D01*
G37*
G36*
G01X5723100Y5218600D02*
G01X5723100Y5246200D01*
G01X5725500Y5248600D01*
G01X5751914D01*
G01X5754312Y5246200D01*
G01Y5218600D01*
G01X5751914Y5216200D01*
G01X5725500D01*
G01X5723100Y5218600D01*
G37*
G36*
G01X5706900Y5218600D02*
G01X5706900Y5246200D01*
G01X5704500Y5248600D01*
G01X5678086D01*
G01X5675688Y5246200D01*
G01Y5218600D01*
G01X5678086Y5216200D01*
G01X5704500D01*
G01X5706900Y5218600D01*
G37*
G36*
G01X5875883Y5218600D02*
G01X5875883Y5246200D01*
G01X5878283Y5248600D01*
G01X5904696D01*
G01X5907094Y5246200D01*
G01Y5218600D01*
G01X5904696Y5216200D01*
G01X5878283D01*
G01X5875883Y5218600D01*
G37*
G36*
G01X5859682Y5218600D02*
G01X5859682Y5246200D01*
G01X5857282Y5248600D01*
G01X5830869D01*
G01X5828471Y5246200D01*
G01Y5218600D01*
G01X5830869Y5216200D01*
G01X5857282D01*
G01X5859682Y5218600D01*
G37*
G36*
G01X2841898Y6957955D02*
G01X2795899Y6957955D01*
G01X2791898Y6961955D01*
G01Y7012019D01*
G01X2795899Y7016019D01*
G01X2841898D01*
G01X2845899Y7012019D01*
G01Y6961955D01*
G01X2841898Y6957955D01*
G37*
G36*
G01X2841898Y6930955D02*
G01X2795899Y6930955D01*
G01X2791898Y6926954D01*
G01Y6876891D01*
G01X2795899Y6872890D01*
G01X2841898D01*
G01X2845899Y6876891D01*
G01Y6926954D01*
G01X2841898Y6930955D01*
G37*
G36*
G01X1483500Y2464600D02*
G01X1437500Y2464600D01*
G01X1433500Y2468601D01*
G01Y2518664D01*
G01X1437500Y2522665D01*
G01X1483500D01*
G01X1487500Y2518664D01*
G01Y2468601D01*
G01X1483500Y2464600D01*
G37*
G36*
G01X1483500Y2437600D02*
G01X1437500Y2437600D01*
G01X1433500Y2433599D01*
G01Y2383536D01*
G01X1437500Y2379536D01*
G01X1483500D01*
G01X1487500Y2383536D01*
G01Y2433599D01*
G01X1483500Y2437600D01*
G37*
G36*
G01X1621000Y2488100D02*
G01X1621000Y2515700D01*
G01X1623400Y2518100D01*
G01X1649814D01*
G01X1652212Y2515700D01*
G01Y2488100D01*
G01X1649814Y2485700D01*
G01X1623400D01*
G01X1621000Y2488100D01*
G37*
G36*
G01X1604800Y2488100D02*
G01X1604800Y2515700D01*
G01X1602400Y2518100D01*
G01X1575986D01*
G01X1573588Y2515700D01*
G01Y2488100D01*
G01X1575986Y2485700D01*
G01X1602400D01*
G01X1604800Y2488100D01*
G37*
G36*
G01X1621000Y2376259D02*
G01X1621000Y2403859D01*
G01X1623400Y2406259D01*
G01X1649814D01*
G01X1652212Y2403859D01*
G01Y2376259D01*
G01X1649814Y2373859D01*
G01X1623400D01*
G01X1621000Y2376259D01*
G37*
G36*
G01X1604800Y2376259D02*
G01X1604800Y2403859D01*
G01X1602400Y2406259D01*
G01X1575986D01*
G01X1573588Y2403859D01*
G01Y2376259D01*
G01X1575986Y2373859D01*
G01X1602400D01*
G01X1604800Y2376259D01*
G37*
G04 PolygonModel End*

G04 Pad Start*
G54D10*
G01X2247900Y5776011D03*
G01X2247900Y6415989D03*
G54D11*
G01X2277900Y5562600D03*
G01X2107720Y5562600D03*
G54D12*
G01X2522804Y5206390D03*
G01X2587803Y5206390D03*
G01X2652801Y5206390D03*
G01X2717800Y5206390D03*
G01X2782799Y5206390D03*
G01X2847797Y5206390D03*
G01X2912796Y5206390D03*
G01X2912796Y5766410D03*
G01X2847797Y5766410D03*
G01X2782799Y5766410D03*
G01X2717800Y5766410D03*
G01X2652801Y5766410D03*
G01X2587803Y5766410D03*
G01X2522804Y5766410D03*
G54D13*
G01X2614143Y6059401D03*
G01X2884145Y6059401D03*
G01X2614143Y5929404D03*
G01X2884145Y5929404D03*
G54D14*
G01X3959657Y6259500D03*
G01X3959657Y6209487D03*
G01X3959657Y6159500D03*
G01X3959657Y6109487D03*
G01X3959657Y6059500D03*
G01X4242156Y6059500D03*
G01X4242156Y6109487D03*
G01X4242156Y6159500D03*
G01X4242156Y6209487D03*
G01X4242156Y6259500D03*
G54D15*
G01X4100906Y6159500D03*
G54D16*
G01X1536700Y3136900D03*
G54D17*
G01X1436700Y3344799D03*
G01X1486713Y3344799D03*
G01X1536700Y3344799D03*
G01X1586713Y3344799D03*
G01X1636700Y3344799D03*
G01X1636700Y2929001D03*
G01X1586713Y2929001D03*
G01X1536700Y2929001D03*
G01X1486713Y2929001D03*
G01X1436700Y2929001D03*
G54D18*
G01X4799800Y5854598D03*
G01X4749787Y5854598D03*
G01X4699800Y5854598D03*
G54D20*
G01X4799800Y5778602D03*
G01X4749787Y5778602D03*
G01X4699800Y5778602D03*
G54D21*
G01X3403600Y4339986D03*
G01X3403600Y4179987D03*
G01X3403600Y4019987D03*
G01X4038600Y4019987D03*
G01X4038600Y4179987D03*
G01X4038600Y4339986D03*
G54D22*
G01X3721100Y4179987D03*
G54D23*
G01X2924056Y3711410D03*
G01X2924056Y3646411D03*
G01X2924056Y3581413D03*
G01X2924056Y3516414D03*
G01X2924056Y3451416D03*
G54D24*
G01X2876558Y3900157D03*
G01X2876558Y3262643D03*
G54D25*
G01X2640566Y3905644D03*
G01X2640566Y3257156D03*
G54D26*
G01X2457447Y4394200D03*
G01X2927347Y4394200D03*
G54D27*
G01X2925902Y4114800D03*
G01X2585898Y4114800D03*
G54D28*
G01X2182900Y3695700D03*
G01X2262900Y3695700D03*
G54D29*
G01X2341245Y3289300D03*
G54D30*
G01X2103755Y3289300D03*
G54D31*
G01X2642803Y3668702D03*
G01X2737799Y3468703D03*
G01X2547807Y3468703D03*
G54D32*
G01X3871780Y3746500D03*
G01X3744780Y3746500D03*
G54D33*
G01X3378538Y3683000D03*
G01X3548515Y3683000D03*
G54D32*
G01X4127500Y3746481D03*
G01X4000500Y3746481D03*
G54D34*
G01X4833907Y5061598D03*
G01X4998905Y5061598D03*
G01X4998905Y5174602D03*
G01X4833907Y5174602D03*
G54D35*
G01X5255006Y5283200D03*
G01X5539994Y5283200D03*
G54D36*
G01X5397500Y5283200D03*
G54D37*
G01X4918697Y5397500D03*
G54D38*
G01X4758703Y5397500D03*
G54D39*
G01X2954401Y6839204D03*
G54D40*
G01X2954401Y7029196D03*
G01X2684399Y6839204D03*
G54D39*
G01X2684399Y6934200D03*
G01X2684399Y7029196D03*
G54D32*
G01X1587500Y2755881D03*
G01X1460500Y2755881D03*
G04 Pad End*

M02*
